<?xml version="1.0" encoding="utf-8"?>
<!-- Generator: Adobe Illustrator 16.0.0, SVG Export Plug-In . SVG Version: 6.00 Build 0)  -->
<!DOCTYPE svg PUBLIC "-//W3C//DTD SVG 1.1//EN" "http://www.w3.org/Graphics/SVG/1.1/DTD/svg11.dtd">
<svg version="1.1" id="Layer_1" xmlns="http://www.w3.org/2000/svg" xmlns:xlink="http://www.w3.org/1999/xlink" x="0px" y="0px"
	 width="1080px" height="729px" viewBox="0 0 1080 729" enable-background="new 0 0 1080 729" xml:space="preserve">
<g>
	<g>
		<path fill="#FFFFFF" d="M244.426,142.647v52.248c0,55.813-43.531,98.157-121.516,98.157C44.936,293.053,1,250.708,1,182.226
			v-71.24C1,42.504,44.936,0.15,122.91,0.15c60.959,0,98.953,24.934,115.582,69.271c3.955,11.474,1.184,17.414-10.688,21.376
			l-42.354,15.029c-12.275,3.963-17.02,1.595-21.377-10.676c-7.131-17.82-18.992-25.729-41.164-25.729
			c-31.271,0-43.539,13.45-43.539,41.158v72.037c0,27.706,12.268,41.165,43.539,41.165c26.518,0,42.752-9.887,42.752-26.917v-7.918
			h-37.996c-12.279,0-16.633-3.946-16.633-16.607v-29.692c0-12.669,4.354-17.023,16.633-17.023h100.139
			C240.465,125.624,244.426,129.979,244.426,142.647"/>
	</g>
	<g>
		<path fill="#FFFFFF" d="M507.256,287.113h-42.752c-20.586,0-26.518-4.354-29.684-16.623l-9.105-28.497h-85.496l-9.109,28.497
			c-3.947,12.27-9.102,16.623-28.887,16.623h-41.564c-12.262,0-14.646-5.533-10.684-16.226L341.008,19.94
			c3.959-11.481,9.105-13.85,20.578-13.85h45.129c11.482,0,16.629,2.767,20.586,13.061l91.441,251.736
			C522.691,281.58,519.129,287.113,507.256,287.113 M382.412,78.128l-23.982,101.73h49.48L382.412,78.128z"/>
	</g>
	<g>
		<path fill="#FFFFFF" d="M511.303,604.381h-42.752c-20.586,0-26.518-4.354-29.684-16.623l-9.105-28.496h-85.496l-9.109,28.496
			c-3.947,12.27-9.102,16.623-28.887,16.623h-41.564c-12.264,0-14.646-5.533-10.684-16.225l91.033-250.946
			c3.959-11.481,9.105-13.851,20.578-13.851h45.129c11.482,0,16.629,2.768,20.588,13.061l91.439,251.736
			C526.74,598.848,523.176,604.381,511.303,604.381 M386.459,395.398l-23.982,101.729h49.482L386.459,395.398z"/>
	</g>
	<g>
		<path fill="#FFFFFF" d="M1066.555,22.715v35.624c0,12.661-4.361,17.015-17.02,17.015H945.041v35.227h83.518
			c12.662,0,17.018,4.36,17.018,16.631v35.616c0,12.669-4.355,17.023-17.018,17.023h-83.518v37.999H1053.1
			c12.262,0,16.621,3.955,16.621,16.625v36.023c0,12.262-4.359,16.615-16.621,16.615H883.688c-12.664,0-17.02-4.354-17.02-16.615
			V22.715c0-12.278,4.355-16.624,17.02-16.624h165.848C1062.193,6.091,1066.555,10.437,1066.555,22.715"/>
	</g>
	<path fill="#FFFFFF" d="M814.113,322.957h-39.588c-13.064,0-16.621,1.985-22.17,12.669l-65.303,127.858L621.73,335.236
		c-5.523-9.896-9.482-12.279-23.346-12.279h-37.209c-12.658,0-17.016,3.962-17.016,16.632v248.573
		c0,12.268,4.357,16.223,17.016,16.223h40.375c12.67,0,17.023-3.955,17.023-16.223l-0.021-123.709
		c4.166,11.219,8.617,22.061,12.297,28.715l23.34,44.721c4.371,8.707,8.32,11.482,19.008,11.482h26.523
		c10.684,0,14.639-3.555,18.996-11.482l22.164-44.721c3.773-7.359,8.766-18.791,13.465-30.311v125.305
		c0,12.268,3.949,16.223,16.619,16.223h43.148c12.664,0,17.018-3.955,17.018-16.223V339.589
		C831.131,326.919,826.777,322.957,814.113,322.957z"/>
	<g>
		<path fill="#FFFFFF" d="M241.361,339.589v167.03c0,64.908-37.211,103.705-108.861,103.705c-54.613,0-87.471-24.547-102.906-66.893
			c-4.354-11.49-1.188-17.023,10.289-21.377l41.166-14.646c11.875-4.346,17.418-2.375,22.166,9.504
			c6.725,15.834,15.045,24.143,30.875,24.143c19.395,0,28.895-11.082,28.895-34.045V339.589c0-12.278,3.955-16.632,16.625-16.632
			h45.51C237.391,322.957,241.361,327.311,241.361,339.589"/>
	</g>
	<g>
		<path fill="#FFFFFF" d="M1079,459.123v31.271c0,12.66-3.951,17.006-16.621,17.006h-49.875v49.871
			c0,12.678-4.35,16.633-17.027,16.633h-31.258c-12.666,0-17.02-3.955-17.02-16.633V507.4h-49.477
			c-12.666,0-16.619-4.346-16.619-17.006v-31.271c0-12.67,3.953-17.023,16.619-17.023h49.477v-49.482
			c0-12.662,4.354-16.623,17.02-16.623h31.258c12.678,0,17.027,3.961,17.027,16.623V442.1h49.875
			C1075.049,442.1,1079,446.453,1079,459.123"/>
	</g>
	<path fill="#FFFFFF" d="M810.063,5.685h-39.588c-13.064,0-16.619,1.985-22.17,12.669l-65.303,127.858l-65.32-128.249
		c-5.525-9.895-9.484-12.278-23.348-12.278h-37.209c-12.658,0-17.014,3.962-17.014,16.632v248.571
		c0,12.271,4.355,16.226,17.014,16.226H597.5c12.67,0,17.023-3.954,17.023-16.226l-0.02-123.706
		c4.164,11.22,8.617,22.061,12.295,28.714l23.342,44.722c4.369,8.706,8.318,11.48,19.008,11.48h26.521
		c10.686,0,14.641-3.555,18.996-11.48l22.166-44.722c3.773-7.36,8.764-18.793,13.463-30.31v125.302
		c0,12.271,3.949,16.226,16.619,16.226h43.148c12.664,0,17.018-3.954,17.018-16.226V22.316
		C827.08,9.646,822.727,5.685,810.063,5.685z"/>
	<path fill="#FFFFFF" d="M58.748,647.992H31.541c-3.574,0-4.813,1.213-4.813,4.68v69.824c0,3.459,1.238,4.678,4.813,4.678h27.207
		c21.975,0,34.262-12.043,34.262-31.223v-16.729C93.01,659.912,80.723,647.992,58.748,647.992z M70.914,695.609
		c0,7.928-3.91,12.053-12.934,12.053h-9.15v-40.158h9.15c9.023,0,12.934,4.135,12.934,12.053V695.609z"/>
	<path fill="#FFFFFF" d="M154.814,707.662h-30.449v-10.709h23.516c3.574,0,4.814-1.23,4.814-4.801v-10.033
		c0-3.475-1.24-4.688-4.814-4.688h-23.516v-9.928h29.438c3.574,0,4.791-1.227,4.791-4.791v-10.041c0-3.467-1.217-4.68-4.791-4.68
		h-46.74c-3.576,0-4.785,1.213-4.785,4.68v69.824c0,3.459,1.209,4.678,4.785,4.678h47.752c3.459,0,4.691-1.219,4.691-4.678V712.34
		C159.506,708.777,158.273,707.662,154.814,707.662z"/>
	<path fill="#FFFFFF" d="M278.654,677.432c-8.045-1-14.611-2.008-14.611-6.803c0-3.904,2.994-5.809,10.582-5.809
		c5.15,0,9.15,1.57,11.275,5.809c1.775,3.232,3.021,3.68,6.023,2.344l11.148-4.791c3.35-1.344,4.252-3.021,2.682-6.266
		c-5.244-10.701-14.613-15.615-31.129-15.615c-21.295,0-33.117,10.27-33.117,24.98c0,21.652,18.291,23.996,31.344,25.777
		c7.363,1.018,13.049,2.238,13.049,6.584c0,4.791-4.465,6.355-11.93,6.355c-6.242,0-10.607-2.002-12.605-5.9
		c-1.68-3.246-3.232-3.58-6.578-2.457l-10.5,3.783c-3.227,1.229-4.232,2.799-3,6.143c4.244,11.596,15.84,17.283,32.459,17.283
		c19.732,0,34.574-9.041,34.574-25.426C308.32,682.338,291.588,679.223,278.654,677.432z"/>
	<path fill="#FFFFFF" d="M353.836,647.992h-13.145c-3.35,0-4.473,1.115-4.473,4.443v70.279c0,3.354,1.123,4.459,4.473,4.459h13.145
		c3.348,0,4.471-1.105,4.471-4.459v-70.279C358.307,649.107,357.184,647.992,353.836,647.992z"/>
	<path fill="#FFFFFF" d="M431.826,647.992h-11.385c-3.568,0-4.686,1.213-4.686,4.68v5.666v30.457
		c-1.293-3.121-2.748-6.127-5.236-10.021l-18.301-28.553c-0.996-1.568-2.107-2.229-4.695-2.229h-13.156
		c-3.572,0-4.799,1.213-4.799,4.68v69.824c0,3.459,1.227,4.678,4.799,4.678h11.271c3.566,0,4.799-1.219,4.799-4.678v-4.723v-33.561
		c1.818,5.113,3.748,9.164,7.033,14.295l17.17,26.445c1.004,1.553,2.232,2.221,4.58,2.221h12.605c3.467,0,4.676-1.219,4.676-4.678
		v-69.824C436.502,649.205,435.293,647.992,431.826,647.992z"/>
	<path fill="#FFFFFF" d="M523.416,647.992h-55.227c-3.57,0-4.674,1.213-4.674,4.68v10.041c0,3.564,1.104,4.791,4.674,4.791h16.621
		v54.992c0,3.459,1.123,4.678,4.691,4.678h12.619c3.572,0,4.777-1.219,4.777-4.678v-54.992h16.518c3.576,0,4.797-1.227,4.797-4.791
		v-10.041C528.213,649.205,526.992,647.992,523.416,647.992z"/>
	<path fill="#FFFFFF" d="M596.152,647.863h-12.713c-3.457,0-4.678,1.244-4.678,4.809v24.639h-21.656v-24.639
		c0-3.564-1.096-4.809-4.668-4.809h-12.621c-3.566,0-4.795,1.244-4.795,4.809v69.824c0,3.459,1.229,4.678,4.795,4.678h12.621
		c3.572,0,4.668-1.219,4.668-4.678v-25.658h21.656v25.658c0,3.459,1.221,4.678,4.678,4.678h12.713c3.463,0,4.699-1.219,4.699-4.678
		v-69.824C600.852,649.107,599.615,647.863,596.152,647.863z"/>
	<path fill="#FFFFFF" d="M664.539,707.662H634.08v-10.709h23.555c3.57,0,4.789-1.23,4.789-4.801v-10.033
		c0-3.475-1.219-4.688-4.789-4.688H634.08v-9.928h29.461c3.578,0,4.797-1.227,4.797-4.791v-10.041c0-3.467-1.219-4.68-4.797-4.68
		h-46.74c-3.576,0-4.807,1.213-4.807,4.68v69.824c0,3.459,1.23,4.678,4.807,4.678h47.738c3.463,0,4.693-1.219,4.693-4.678V712.34
		C669.232,708.777,668.002,707.662,664.539,707.662z"/>
	<path fill="#FFFFFF" d="M834.912,646.301c-22.088,0-34.354,11.951-34.354,31.246v20.082c0,19.293,12.266,31.221,34.354,31.221
		c21.979,0,34.244-11.928,34.244-31.221v-20.082C869.156,658.252,856.891,646.301,834.912,646.301z M847.064,698.621
		c0,7.029-4.459,10.715-12.152,10.715c-7.82,0-12.271-3.686-12.271-10.715v-22.076c0-7.047,4.451-10.715,12.271-10.715
		c7.693,0,12.152,3.668,12.152,10.715V698.621z"/>
	<path fill="#FFFFFF" d="M933.871,702.65c-0.895-1.799-1.904-3.354-3.01-4.803c7.576-4.24,12.043-12.057,12.043-22.971
		c0-17.299-10.938-26.885-27.785-26.885h-31.787c-3.572,0-4.801,1.213-4.801,4.68v69.824c0,3.459,1.229,4.678,4.801,4.678h12.613
		c3.564,0,4.678-1.219,4.678-4.678v-21.645h2.568c4.572,0,6.469,1.904,8.365,5.695l7.135,15.273
		c1.799,3.922,4.357,5.354,10.266,5.354H941c3.678,0,4.463-2.447,2.9-5.467L933.871,702.65z M912.67,682.217h-12.047v-14.713h12.047
		c4.801,0,7.365,2.793,7.365,7.252C920.035,679.336,917.357,682.217,912.67,682.217z"/>
	<path fill="#FFFFFF" d="M1001.242,707.662h-26.873v-54.99c0-3.467-1.119-4.68-4.689-4.68h-12.602c-3.572,0-4.805,1.213-4.805,4.68
		v69.824c0,3.459,1.232,4.678,4.805,4.678h44.164c3.461,0,4.688-1.219,4.688-4.678V712.34
		C1005.93,708.777,1004.703,707.662,1001.242,707.662z"/>
	<path fill="#FFFFFF" d="M1044.768,647.992h-27.234c-3.572,0-4.793,1.213-4.793,4.68v69.824c0,3.459,1.221,4.678,4.793,4.678h27.234
		c21.971,0,34.232-12.043,34.232-31.223v-16.729C1079,659.912,1066.738,647.992,1044.768,647.992z M1056.926,695.609
		c0,7.928-3.912,12.053-12.943,12.053h-9.146v-40.158h9.146c9.031,0,12.943,4.135,12.943,12.053V695.609z"/>
	<path fill="#FFFFFF" d="M234.803,647.992h-12.609c-5.459,0-7.135,1.213-8.035,4.68l-13.469,48.701l-13.514-48.701
		c-0.898-3.467-2.682-4.68-8.373-4.68h-12.709c-3.35,0-4.363,1.545-3.24,4.564l24.773,70.947c0.99,2.889,2.561,3.67,5.793,3.67
		h13.936c3.23,0,4.691-0.668,5.814-3.898l24.639-70.719C238.932,649.537,238.146,647.992,234.803,647.992z"/>
	<path fill="#FFFFFF" d="M792.389,647.992h-12.373c-4.035,0-5.691,0.66-6.359,4.109l-6.6,41.221l-9.588-41.221
		c-0.773-3.449-2.787-4.109-6.25-4.109h-12.043c-3.568,0-5.461,0.537-6.244,4.109l-9.512,40.213l-6.771-40.213
		c-0.68-3.449-2.344-4.109-6.246-4.109h-13.727c-3.459,0-3.783,1.439-3.01,4.564l17.629,70.947c0.678,3.002,2.563,3.67,5.801,3.67
		h12.84c3.113,0,4.887-0.668,5.777-3.898l8.623-37.586l8.807,37.814c0.652,2.889,2.547,3.67,5.777,3.67h13.061
		c3.115,0,4.906-0.668,5.693-3.898l17.729-70.719C796.188,649.432,795.838,647.992,792.389,647.992z"/>
</g>
</svg>
