<?xml version="1.0" encoding="UTF-8"?> <svg xmlns="http://www.w3.org/2000/svg" xmlns:xlink="http://www.w3.org/1999/xlink" version="1.1" id="Camada_1" x="0px" y="0px" viewBox="0 0 302.635 141.585" xml:space="preserve"> <g> <path fill="#000000" d="M142.396,61.093l-1.69,13.739c-0.305,2.405-0.674,4.768-1.171,7.065h-20.327l-6.501,0.698l-1.043,5.799 c-2.165,12.401-0.301,24.255,5.29,34.176c-13.22,12.074-31.056,19.013-51.408,19.013c-20.629,0-38.615-7.479-50.621-21.047 C3.327,107.428-1.787,89.719,0.556,70.714C5.409,31.081,40.475,0,80.328,0c24.728,0,46.159,12.026,55.912,31.361l0.955,1.888 l-31.251,16.749l-0.996-1.968c-4.4-8.676-15.562-14.261-28.41-14.261c-21.391,0-38.861,15.839-41.546,37.667 C33.715,81.79,36.094,90.692,41.84,97.22c6.154,6.961,15.732,10.621,27.693,10.621c14.61,0,26.009-5.664,32.554-16.018H68.081 l3.773-30.73H142.396z"></path> <path fill="#000000" d="M209.51,50.56l-7.365,40.114h17.468l-0.178,1.018c-5.762,27.565-32.096,49.547-59.57,49.547 c-13.703,0-25.706-5.339-33.811-14.978c-8.277-9.86-11.486-22.973-9.036-36.926l0.323-1.825l1.866-0.194h32.617l-0.454,2.775 c-0.802,4.552,0.146,8.605,2.729,11.746c2.641,3.206,6.569,4.983,11.009,4.983c4.442,0,9.105-1.888,13.092-5.266 c3.901-3.317,7.39-11.075,8.211-14.238c0.238-0.935,9.841-55.699,9.841-55.699h-31.794L170.739,0h65.106l-9.039,50.56H209.51z"></path> <path fill="#000000" d="M297.443,85.268h-29.662l-5.187,29.656h-29.475l5.187-29.656h-29.656l5.374-29.294h29.475l5.374-29.667 h29.293l-5.192,29.667h29.662L297.443,85.268z"></path> </g> </svg> 