<?xml version="1.0" encoding="utf-8"?>
<!-- Generator: Adobe Illustrator 16.0.0, SVG Export Plug-In . SVG Version: 6.00 Build 0)  -->
<!DOCTYPE svg PUBLIC "-//W3C//DTD SVG 1.1//EN" "http://www.w3.org/Graphics/SVG/1.1/DTD/svg11.dtd">
<svg version="1.1" xmlns="http://www.w3.org/2000/svg" xmlns:xlink="http://www.w3.org/1999/xlink" x="0px" y="0px" width="1080px"
	 height="833.419px" viewBox="0 0 1080 833.419" enable-background="new 0 0 1080 833.419" xml:space="preserve">
<g id="Layer_2" display="none">
	<rect y="0" display="inline" width="1080" height="833.42"/>
</g>
<g id="Layer_1">
	<g>
		<polygon fill="#FFFFFF" points="68.485,313.918 67.855,315.027 69.734,318.771 69.734,319.807 70.364,320.848 70.364,321.957 
			71.613,323.686 71.613,324.377 73.506,324.591 77.25,324.727 108.592,325.007 112.151,325.007 116.422,325.273 142.666,325.273 
			164.252,325.599 170.188,325.273 170.931,325.058 179.397,325.076 188.177,325.007 193.188,324.799 195.066,324.45 
			195.066,323.686 195.687,319.875 195.687,318.771 198.195,315.027 198.195,313.918 196.311,310.176 196.311,304.148 
			197.561,300.41 197.561,299.301 196.946,295.558 196.946,294.448 197.561,290.633 197.561,289.529 196.946,285.787 
			196.946,279.002 196.311,277.889 195.066,276.088 194.447,275.323 193.188,274.911 186.283,274.771 176.948,274.771 
			176.948,272.761 175.679,255.049 175.679,226.485 176.521,208.768 176.521,203.529 176.105,185.792 176.105,180.544 
			176.521,162.492 176.521,157.244 176.105,139.527 176.105,137.951 179.397,137.958 188.177,137.89 193.188,137.682 
			195.066,137.333 195.066,136.568 195.687,132.757 195.687,131.653 198.195,127.911 198.195,126.802 196.311,123.059 
			196.311,117.03 197.561,113.292 197.561,112.184 196.946,108.44 196.946,107.332 197.561,103.516 197.561,102.412 196.946,98.669 
			196.946,91.885 196.311,90.771 195.066,88.971 194.447,88.205 193.188,87.794 186.283,87.653 171.08,87.653 168.909,87.349 
			142.666,87.349 131.213,87.732 118.62,87.794 110.118,87.794 106.254,87.667 104.223,87.774 93.547,87.726 84.149,87.794 
			79.138,87.794 72.872,87.862 69.114,88.138 67.236,88.903 68.485,92.708 68.485,98.669 67.855,102.412 67.855,103.516 
			68.485,107.332 68.485,113.292 69.114,117.03 69.114,118.139 70.993,121.949 70.364,123.059 68.485,126.802 67.855,127.911 
			69.734,131.653 69.734,132.689 70.364,133.731 70.364,134.84 71.613,136.568 71.613,137.26 73.506,137.474 77.25,137.609 
			89.325,137.717 89.325,139.527 88.899,157.244 88.899,162.492 89.325,180.544 89.325,208.768 89.751,226.485 89.751,231.739 
			91.021,249.786 90.594,255.049 89.325,272.761 89.153,274.875 84.149,274.911 79.138,274.911 72.872,274.979 69.114,275.255 
			67.236,276.02 68.485,279.827 68.485,285.787 67.855,289.529 67.855,290.633 68.485,294.448 68.485,300.41 69.114,304.148 
			69.114,305.256 70.993,309.067 70.364,310.176 		"/>
		<polygon fill="#FFFFFF" points="674.171,98.669 673.551,102.412 673.551,103.516 674.171,107.332 674.171,113.292 674.81,117.03 
			674.81,118.139 676.688,121.949 676.061,123.059 674.171,126.802 673.551,127.911 675.42,131.653 675.42,132.689 676.061,133.731 
			676.061,134.84 677.31,136.568 677.31,137.26 679.197,137.474 682.944,137.609 692.368,137.694 692.368,139.933 691.913,157.66 
			691.913,162.909 692.368,180.975 692.368,209.195 692.822,226.921 692.822,232.17 694.159,250.236 693.723,255.48 
			692.368,273.217 692.223,274.894 689.841,274.911 684.834,274.911 678.567,274.979 674.81,275.255 672.933,276.02 
			674.171,279.827 674.171,285.787 673.551,289.529 673.551,290.633 674.171,294.448 674.171,300.41 674.81,304.148 674.81,305.256 
			676.688,309.067 676.061,310.176 674.171,313.918 673.551,315.027 675.42,318.771 675.42,319.807 676.061,320.848 
			676.061,321.957 677.31,323.686 677.31,324.377 679.197,324.591 682.944,324.727 707.869,324.949 721.1,325.729 748.963,325.729 
			771.873,326.053 778.149,325.729 781.743,325.076 781.748,325.068 785.094,325.076 793.867,325.007 798.874,324.799 
			800.763,324.45 800.763,323.686 801.372,319.875 801.372,318.771 803.881,315.027 803.881,313.918 802.002,310.176 
			802.002,304.148 803.251,300.41 803.251,299.301 802.631,295.558 802.631,294.448 803.251,290.633 803.251,289.529 
			802.631,285.787 802.631,279.002 802.002,277.889 800.763,276.088 800.132,275.323 798.874,274.911 791.979,274.771 
			785.335,274.771 785.335,273.217 783.999,255.48 783.999,226.921 784.891,209.195 784.891,203.941 784.443,186.204 
			784.443,180.975 784.891,162.909 784.891,157.66 784.443,139.933 784.443,137.957 785.094,137.958 793.867,137.89 
			798.874,137.682 800.763,137.333 800.763,136.568 801.372,132.757 801.372,131.653 803.881,127.911 803.881,126.802 
			802.002,123.059 802.002,117.03 803.251,113.292 803.251,112.184 802.631,108.44 802.631,107.332 803.251,103.516 
			803.251,102.412 802.631,98.669 802.631,91.885 802.002,90.771 800.763,88.971 800.132,88.205 798.874,87.794 791.979,87.653 
			753.137,87.653 724.315,87.794 714.283,87.794 699.244,87.726 689.841,87.794 684.834,87.794 678.567,87.862 674.81,88.138 
			672.933,88.903 674.171,92.708 		"/>
		<path fill="#FFFFFF" d="M1010.858,459.862l-0.632-5.371l-1.893-9.48l-1.584-7.266l-1.583-4.432l-2.206-4.74l-2.536-4.109
			l-3.467-6.324l-2.536-4.107l-2.215-4.11l-2.516-4.109l-4.439-6.004l-2.837-3.798l-3.486-3.478l-3.479-3.156l-5.361-5.051
			l-4.109-3.167l-4.109-2.836l-10.433-6.014l-4.42-1.894l-6.646-2.526l-4.739-1.583l-4.742-1.264l-5.062-1.262l-5.371-0.953
			l-5.362-1.272l-5.372-0.953l-5.392-0.621l-7.576-0.321l-9.481-0.631l-10.113,0.631l-15.815,1.895l-4.72,0.952l-12.037,2.225
			l-4.73,1.252l-4.741,1.594l-4.42,1.573l-6.644,2.836l-4.43,2.226l-4.412,2.516l-4.116,2.535l-9.481,6.314l-4.11,2.847
			l-4.108,3.167l-5.372,4.419l-3.79,3.798l-1.581,2.526l-3.158,4.42l-4.431,6.964l-2.525,4.733l-1.263,2.855l-2.215,5.051
			l-2.214,7.266l-1.895,5.053l-1.585,4.75l-1.583,5.373l-1.262,5.371l-0.942,5.383l-0.643,5.361l-0.311,5.691l-0.319,5.373v5.381
			l0.319,5.373l0.311,4.73l0.952,6.955l0.952,4.75l0.942,5.063l0.963,4.74l1.885,6.627l4.74,14.219l2.533,6.336l2.527,4.098
			l3.157,4.121l3.167,3.787l8.519,8.531l3.478,4.107l3.81,4.119l4.109,3.479l4.099,3.156l4.75,2.846l4.731,2.525l10.122,4.43
			l5.371,2.205l5.062,1.586l17.068,5.691l4.751,1.262l4.41,0.953l10.433,1.262l10.744,0.621h17.078l5.361-0.309l5.382-0.953
			l5.372-1.264l5.052-1.262l5.371-1.574l10.124-3.166l4.75-1.262l6.314-2.527l4.42-1.895l4.74-2.535l4.1-2.525l5.702-3.799
			l3.788-2.848l4.11-3.146l3.477-3.178l5.062-5.361l3.158-3.477l3.167-4.119l2.837-4.1l8.538-14.221l2.215-4.432l3.157-6.635
			l1.263-4.748l0.941-5.053l0.643-4.742l0.641-7.273l1.884-9.482l0.633-4.742l0.641-7.266l0.311-5.061l-0.631-10.744
			L1010.858,459.862z M948.088,508.19l-2.515,2.777l-9.792,9.531l-11.725,11.727l-9.994,8.969l-1.383,0.893l-0.952,0.18
			l-1.263-1.271l-3.568-2.787l-2.024-2.035l-2.095-1.713l-1.902-1.914l-7.417-6.285l-1.845-2.225l-5.562-6.553l-0.142,0.139
			l-7.035,6.674l-10.916,10.916l-6.604,7.365l-1.964,0.822l-1.643-0.619l-2.015-1.766l-1.523-1.523l-2.977-2.707l-4.411-4.67
			l-3.025-3.035l-8.971-8.449l-11.736-11.746l-1.824-2.338l0.382-1.141l1.202-1.584l2.926-3.678l1.844-2.227l12.438-12.438
			l6.154-6.494l-6.154-6.494l-10.923-10.914l-7.357-6.615l-0.821-1.963l0.632-1.645l1.752-2.016l1.524-1.512l2.705-2.977l4.672-4.42
			l3.036-3.016l8.449-8.973l11.746-11.735l2.335-1.835l1.143,0.392l1.584,1.192l3.678,2.937l2.215,1.842l12.448,12.439l6.805,6.443
			l5.553-6.574l2.033-2.025l7.609-6.104l2.044-2.023l7.154-6.794l1.404-1.402l1.213-0.061l1.885,1.132l2.784,2.514l9.521,9.793
			l11.735,11.736l8.972,9.973l0.882,1.393l0.181,0.951l-1.263,1.264l-2.797,3.559l-2.034,2.035l-1.713,2.094l-1.905,1.904
			l-6.294,7.418l-2.225,1.852l-6.946,5.895l7.336,6.205l2.025,2.033l6.104,7.607l2.035,2.035l6.795,7.166l1.393,1.393l0.06,1.211
			L948.088,508.19z"/>
		<polygon fill="#FFFFFF" points="332.756,267.333 345.48,282.993 348.744,286.91 361.459,302.894 364.403,307.14 369.294,316.597 
			372.229,320.838 376.141,323.768 380.063,325.404 384.296,326.377 389.515,326.377 397.669,326.048 402.898,325.729 
			419.537,325.076 424.097,324.751 427.032,323.768 430.295,321.487 432.91,317.895 434.216,313.981 434.536,309.421 
			434.216,290.498 435.186,274.838 435.515,269.294 435.845,266.685 435.845,261.14 435.186,218.076 435.186,212.855 
			434.216,193.933 434.216,145.656 434.536,140.432 435.515,121.185 436.163,115.965 436.821,105.855 436.502,100.305 
			436.163,97.372 435.515,92.805 433.558,90.52 431.273,89.542 427.689,88.889 420.185,88.559 415.295,88.239 404.196,88.889 
			398.978,88.889 384.296,87.915 378.756,88.239 375.822,88.239 371.908,88.889 369.614,90.195 368.307,92.805 367.328,97.047 
			367.328,105.202 368.307,117.268 368.636,122.487 367.328,142.393 367.328,147.613 368.636,167.509 368.636,172.724 
			367.667,186.756 367.987,191.976 370.272,205.679 370.272,209.268 367.987,210.894 365.383,210.569 362.768,208.284 
			351.021,191.976 347.757,188.064 335.361,172.404 332.437,168.487 320.68,152.179 317.426,148.261 305.359,132.278 
			302.096,128.361 290.02,112.697 286.757,108.789 273.054,94.108 271.097,91.174 269.47,89.866 265.549,89.542 241.085,89.542 
			231.295,88.889 221.505,89.542 217.931,90.195 215.976,91.174 214.987,93.459 214.339,97.047 213.68,101.937 213.351,106.828 
			213.351,114.333 213.68,119.558 214.987,137.168 215.315,142.393 214.009,159.679 214.009,164.899 215.315,182.19 
			215.315,204.701 214.987,209.92 214.009,227.212 213.68,232.432 213.03,272.229 213.03,277.448 214.009,294.734 213.68,299.959 
			213.03,310.723 213.03,315.614 213.351,317.895 214.009,321.158 215.315,323.448 217.931,325.076 221.505,325.729 
			226.404,326.048 231.634,326.048 244.999,325.404 250.219,325.404 265.229,325.729 270.769,325.404 273.392,325.076 
			277.295,324.421 279.58,323.768 281.866,321.487 282.844,317.251 282.515,312.031 280.559,298.981 280.229,293.762 
			281.207,275.492 281.207,270.273 280.888,252.003 280.888,246.779 280.559,230.47 280.559,225.25 281.207,208.942 
			282.186,205.021 284.471,204.052 287.415,206.657 299.472,222.646 302.744,226.553 315.47,242.212 318.404,246.135 
			329.812,263.092 		"/>
		<polygon fill="#FFFFFF" points="820.231,317.251 820.891,320.838 821.86,323.124 824.146,324.751 828.067,325.404 
			839.155,326.048 867.201,324.421 872.43,324.421 889.388,325.729 911.902,325.729 917.122,325.404 934.088,324.102 
			939.299,323.768 956.586,325.076 961.814,325.076 1004.551,323.768 1006.189,322.466 1007.485,320.185 1007.814,316.921 
			1009.122,299.301 1009.442,294.086 1008.464,276.137 1008.133,272.553 1006.837,270.591 1004.88,269.614 993.133,268.312 
			988.244,267.982 983.344,267.982 960.188,269.294 954.959,269.294 931.804,267.982 914.188,269.294 908.958,269.294 
			891.023,268.636 887.431,268.312 886.124,267.009 885.146,264.723 884.826,261.46 884.826,254.289 885.146,249.064 
			886.124,240.91 886.463,236.02 887.431,233.734 889.068,232.756 892.979,232.432 898.529,232.098 911.574,233.08 916.804,233.08 
			937.673,233.734 963.771,232.098 968.99,232.432 983.672,234.063 990.198,234.063 993.453,233.405 995.738,231.778 
			997.046,229.492 997.705,225.575 998.344,215.789 997.705,208.284 997.705,197.526 997.365,191.976 996.718,186.432 
			996.396,182.844 995.418,180.888 993.453,179.251 989.869,178.603 979.76,177.948 943.212,179.905 912.222,179.905 
			901.793,180.558 891.354,179.905 887.75,178.926 886.463,177.299 885.804,175.014 885.475,171.426 885.146,165.882 
			885.146,160.658 885.804,152.828 886.463,149.24 886.771,147.283 888.409,145.656 891.673,144.998 894.277,144.674 
			899.168,144.674 913.85,145.656 930.825,146.306 936.035,146.306 952.684,145.656 957.894,145.656 988.563,146.306 
			993.783,145.977 996.396,145.977 1000.31,145.328 1001.947,144.02 1003.244,141.735 1003.902,137.821 1004.232,132.932 
			1003.902,128.037 1003.572,119.877 1003.572,114.333 1004.232,106.179 1004.232,97.372 1003.572,93.13 1002.923,90.844 
			1000.969,89.217 996.396,88.239 988.244,88.239 977.145,89.217 971.606,89.542 927.233,88.889 922.014,88.889 902.44,90.195 
			897.221,90.195 877.651,88.889 872.43,88.889 852.521,89.217 831.32,87.915 827.08,88.559 824.474,88.889 822.838,90.195 
			821.86,92.805 821.541,97.372 820.553,114.333 820.553,119.233 819.913,129.014 819.913,136.844 820.231,142.064 821.211,159.355 
			821.541,164.57 820.231,181.865 820.231,209.592 819.584,227.212 819.913,232.432 820.891,249.723 821.211,254.933 
			820.891,272.229 820.891,277.448 819.584,294.734 819.584,299.635 819.254,304.525 819.584,309.74 		"/>
		<polygon fill="#FFFFFF" points="502.626,542.043 501.367,540.151 499.479,539.196 488.1,537.938 483.354,537.62 478.609,537.62 
			456.172,538.891 451.106,538.891 428.668,537.62 411.604,538.891 406.541,538.891 389.157,538.247 385.69,537.938 
			384.422,536.674 383.473,534.456 383.152,531.299 383.152,524.346 383.473,519.28 384.422,511.379 384.73,506.641 385.69,504.43 
			387.269,503.481 391.055,503.17 396.431,502.852 409.078,503.797 414.133,503.797 434.362,504.43 459.647,502.852 464.703,503.17 
			478.93,504.75 485.243,504.75 488.41,504.116 490.627,502.534 491.896,500.319 492.516,496.524 493.155,487.043 492.516,479.784 
			492.516,469.34 492.196,463.975 491.577,458.6 491.247,455.124 490.308,453.227 488.41,451.641 484.933,451.018 475.143,450.379 
			439.729,452.276 409.707,452.276 399.597,452.905 389.477,452.276 385.991,451.333 384.73,449.743 384.111,447.542 
			383.793,444.069 383.473,438.68 383.473,433.629 384.111,426.047 384.73,422.567 385.051,420.672 386.63,419.092 389.786,418.456 
			392.314,418.143 397.06,418.143 411.286,419.092 427.72,419.719 432.774,419.719 448.898,419.092 453.964,419.092 
			483.675,419.719 488.721,419.409 491.247,419.409 495.044,418.774 496.633,417.511 497.9,415.293 498.529,411.501 
			498.841,406.757 498.529,402.021 498.21,394.123 498.21,388.743 498.841,380.841 498.841,372.305 498.21,368.198 497.571,365.986 
			495.683,364.407 491.247,363.463 483.354,363.463 472.605,364.407 467.23,364.727 424.243,364.087 419.188,364.087 
			400.226,365.356 395.161,365.356 376.199,364.087 371.136,364.087 351.863,364.407 331.323,363.144 327.207,363.778 
			324.68,364.087 323.101,365.356 322.152,367.889 321.833,372.305 320.883,388.743 320.883,393.494 320.244,402.959 
			320.244,410.552 320.564,415.617 321.522,432.356 321.833,437.422 320.564,454.174 320.564,481.04 319.944,498.106 
			320.244,503.17 321.204,519.92 321.522,524.981 321.204,541.725 321.204,546.784 319.944,563.538 319.944,568.278 
			319.625,573.018 319.944,578.079 320.564,585.352 321.204,588.827 322.152,591.04 324.37,592.62 328.156,593.254 338.905,593.877 
			366.079,592.301 371.136,592.301 387.578,593.569 409.387,593.569 414.453,593.254 430.886,591.979 435.94,591.667 
			452.694,592.934 457.751,592.934 499.159,591.667 500.728,590.403 501.997,588.194 502.316,585.038 503.585,567.959 
			503.895,562.913 502.946,545.52 		"/>
		<polygon fill="#FFFFFF" points="303.413,498.168 304.266,481.053 304.266,475.993 303.839,458.872 303.839,453.795 
			304.266,436.356 304.266,431.286 303.839,414.18 303.839,383.108 303.413,378.038 302.57,369.806 302.154,366.311 
			301.302,364.412 296.645,363.778 270.4,363.778 267.088,363.884 265.325,363.778 260.493,364.102 250.935,364.412 
			244.155,364.412 235.634,364.146 228.98,363.778 223.916,363.778 220.13,364.407 219.693,364.892 217.485,365.996 
			216.217,369.482 216.788,381.137 216.962,392.854 216.962,397.915 217.069,401.212 217.069,414.18 216.634,431.286 
			216.634,436.356 216.691,438.362 216.333,444.069 216.023,447.542 214.754,450.063 211.278,451.967 209.07,452.276 
			204.325,452.276 185.673,451.018 165.443,450.379 160.698,450.698 156.32,451.385 156.688,436.356 156.688,431.286 
			156.262,414.18 156.262,383.108 155.837,378.038 154.994,369.806 154.577,366.311 153.726,364.412 149.066,363.778 
			122.822,363.778 103.348,364.412 96.578,364.412 86.41,364.097 80.077,364.412 76.688,364.412 72.445,364.727 69.909,365.996 
			68.64,369.482 68.746,371.617 68.727,371.68 68.727,378.318 69.249,381.853 69.492,386.909 69.492,414.18 69.056,431.286 
			69.056,436.356 69.356,448.504 69.356,459.549 69.492,466.502 69.492,481.053 69.909,498.168 69.909,503.239 70.471,510.922 
			70.306,519.92 70.306,524.981 69.772,539.012 69.492,542.868 69.056,547.938 69.676,556.176 69.676,568.278 69.047,577.764 
			69.047,582.829 69.356,585.661 69.996,589.139 71.254,590.721 72.271,591.231 72.872,591.68 73.472,591.831 73.782,591.979 
			74.944,592.194 75.409,592.311 75.661,592.329 77.27,592.62 79.786,592.62 84.852,592.934 85.316,592.905 96.578,593.579 
			118.164,593.579 122.774,593.877 126.532,593.631 144.409,593.897 150.345,593.579 153.726,592.633 154.994,591.04 
			154.994,587.553 155.41,570.124 155.41,565.049 157.114,547.938 157.114,542.868 155.837,525.75 155.837,506.073 160.397,506.323 
			185.673,506.963 190.738,506.641 203.376,505.7 210.959,505.7 214.436,506.963 215.713,509.491 215.713,513.911 216.333,534.141 
			216.333,539.196 215.713,559.743 216.023,564.803 217.282,585.352 217.921,589.778 219.819,592.301 224.235,593.254 
			229.301,593.254 233.465,592.938 244.155,593.579 270.4,593.579 291.986,593.897 297.922,593.579 301.302,592.633 302.57,591.04 
			302.57,587.553 302.987,570.124 302.987,565.049 304.691,547.938 304.691,542.868 303.413,525.75 		"/>
		<path fill="#FFFFFF" d="M531.78,323.769l8.479,0.651l10.453,0.332h5.202l7.185-0.652l4.892-0.331l19.896-2.926l5.231-0.982
			l5.222-1.303l4.881-1.634l7.186-2.616l4.238-1.954l6.515-3.587l4.24-2.606l6.203-4.902l4.24-3.587l7.176-7.176l5.543-5.222
			l3.269-3.588l4.569-5.212l2.615-4.249l3.589-7.176l1.955-4.891l1.964-5.542l1.942-5.222l1.955-4.891l1.645-5.222l2.284-7.506
			l0.973-5.222l0.32-7.817l0.34-5.553l-0.34-5.542l-0.32-5.222l-0.33-7.828l-0.643-5.222l-0.981-5.552l-0.973-5.212l-1.313-7.177
			l-1.292-5.222l-1.645-5.222l-1.955-5.222l-1.632-5.221l-1.955-4.892l-3.589-7.185l-2.295-4.23l-2.927-3.588l-3.268-3.267
			l-7.175-6.845l-3.909-3.268l-4.25-3.588l-10.763-7.497l-4.563-2.616l-4.89-2.605l-4.911-2.286l-11.726-4.24l-4.892-1.302
			l-5.231-0.992l-8.489-1.303l-5.212-0.642l-10.443-0.651l-8.157-0.662h-5.202l-4.9,0.33l-13.711,0.652h-5.862l-2.606-0.32
			l-15.655-0.993h-5.231l-28.714-0.311l-5.212,0.311l-4.891,0.661l-5.553,0.652l-3.578,0.972l-1.322,1.964l-0.642,3.588
			l-0.982,4.891l-0.32,5.222v12.729l0.981,17.289v5.211l0.321,17.289v5.221l-1.303,17.288l0.32,5.553v2.937l0.331,5.553l0.651,8.479
			v5.211l-0.321,5.542l-0.661,4.892l-0.32,7.175l-0.331,4.902l0.651,17.288v5.222l0.331,17.298v5.222l-0.331,5.202v4.901
			l-0.32,7.507v4.57l-0.662,9.782l-0.311,2.605l0.311,5.221l0.662,3.588l1.623,1.633l2.605,1.313l14.042,1.292l4.881,0.332h22.842
			l4.891,0.321l5.562-0.321l8.148-0.332l10.434-0.651H531.78z M536.601,170.668l0.222-1.945l0.649-2.606l1.083-1.083l2.375-0.641
			l4.762-0.662l3.247-0.21l4.761,0.21h5.413l3.666,0.22l5.422,0.221l3.46,0.652l3.025,0.642l3.026,1.302l4.771,2.817l2.595,1.943
			l2.377,2.386l2.165,2.375l1.082,1.083l3.247,4.541l1.732,3.247l0.422,1.303l0.872,3.248l0.651,4.98l0.21,3.458v6.925l-0.21,4.98
			l-0.22,3.027l-0.863,4.76l-0.862,3.248l-1.303,3.678l-1.502,3.237l-2.606,4.12l-2.175,2.596l-3.878,3.468l-2.817,1.934
			l-3.246,1.523l-3.469,1.293l-3.679,1.083l-3.456,0.651l-4.982,0.221l-20.125,1.293l-2.606-0.221l-1.282-1.072l-0.873-2.385
			l-0.649-5.192l-0.21-3.248l0.21-4.971v-3.037l0.439-4.761l0.21-3.458l0.211-3.678v-10.394l0.223-4.75v-3.468l-0.223-3.458
			l-0.421-3.467l-0.439-4.761l-0.21-3.468l-0.442-6.484L536.601,170.668z"/>
		<path fill="#FFFFFF" d="M755.6,581.553l-9.792-11.373l-3.167-3.789l-11.385-15.805l-3.158-3.801l-11.385-15.482l-2.837-3.799
			l-11.374-16.127l-1.274-2.527l2.526-0.939l4.12-0.951l4.108-2.205l3.778-2.225l6.323-3.479l3.487-2.836l5.052-5.053l2.857-3.488
			l2.847-3.787l2.835-4.1l2.837-4.752l2.215-4.74l1.894-4.74l1.273-5.061l0.942-5.371l0.643-5.385l0.32-5.049v-5.053l-0.634-6.955
			l-0.329-5.061l-0.942-5.051l-1.573-5.062l-2.225-4.742l-2.216-4.43l-3.788-6.002l-2.847-4.109l-4.42-6.324l-3.156-3.789
			l-3.167-3.157l-3.468-2.846L714.508,378l-4.109-2.526l-4.739-2.215l-5.062-1.895l-4.742-1.894l-4.739-1.583l-6.636-1.904
			l-4.74-0.942l-5.371-0.31h-12.007l-20.867-1.263h-5.052l-21.497,1.263l-37.614-1.263l-14.233-0.642l-4.729,0.321l-2.525,0.321
			l-2.477,0.602l-8.259,0.34h-5.441l-8.157-0.311l-5.092,0.311h-2.706l-3.417,0.321l-2.024,1.263l-1.032,3.488l0.681,17.429v27.271
			l-0.341,17.108v5.061l0.341,17.449v27.252l0.352,17.115v5.072l1.012,17.441l-0.341,5.07l-1.022,17.119l-0.341,5.07l1.012,17.107
			v4.76l0.352,4.752v5.082l0.682,7.916v3.178l1.012,0.943l2.035,0.631l16.997,1.271h21.066l17.33,0.32l4.76-0.32l2.717-0.951
			l0.301-0.48l2.545-0.172l15.175,0.953h5.062l3.477-0.953l1.583-1.572l0.632-3.789l0.311-5.063v-5.059l-0.311-7.578l-0.319-5.051
			l-1.273-17.709l-0.312-5.063l0.633-17.379l0.952-4.117l2.524-1.887l4.11-0.318l10.123,0.629l3.777,0.311l1.914,0.951l2.205,2.537
			l10.124,13.592l2.835,3.787l8.85,14.533l2.846,3.799l10.113,13.59l2.847,3.797l10.111,14.225l2.527,2.523l2.845,1.264h4.109
			l14.232-0.631h5.052l17.388,0.32h22.12l4.119-1.264l1.253-2.846l-1.573-3.477L755.6,581.553z M676.333,449.549l-1.263,5.051
			l-2.215,4.742l-3.168,3.787l-3.798,2.215l-4.109,1.584l-6.946,1.264l-20.865,1.262h-5.052l-16.438-1.262l-3.787-0.633
			l-2.215-0.951l-0.632-1.895l-0.32-3.479l0.63-17.377l-0.31-5.383l-0.632-5.361l-0.632-5.072l-0.32-7.266l0.32-3.477l1.896-1.895
			l2.215-0.952l3.787-0.311l16.128-0.952h5.05l15.795,0.319l5.071,0.633l6.957,1.572l4.409,1.905l3.478,2.836l2.856,3.807
			l2.205,4.732l1.271,4.74l0.633,5.381l0.319,5.373L676.333,449.549z"/>
		<path fill="#FFFFFF" d="M1079.92,698.638l-0.029-0.18l-0.021-5.613l-0.02-5.521l0.02-0.122V677.09l-0.06-0.22l-0.03-8.429v-88.037
			l0.13-55.273v-16.377l-0.13-56.295v-88.047l-0.061-55.273v-16.366l-0.361-56.306l0.122-16.387l0.3-55.273l0.13-16.377
			l-0.33-55.263V77.813l-0.1-15.354V46.072l-0.192-25.586v-0.893l0.692-0.261v-6.324l-0.692-1.083v-1.684l-0.36-3.067l-0.563-2.034
			l-0.27-0.221l0.4-0.691l-1.482-1.513V1.944l-1.463-1.052l-5.884-0.632l-7.176-0.11L1061.76,0l-0.182,0.13L1053.451,0L972.45,0.19
			H845.788L766.25,0.07h-23.563l-81.012,0.12H534.993l-79.526,0.07h-23.553l-81.021,0.361l-23.582-0.13L247.773,0.19l-23.553-0.12
			L144.713,0.4h-22.1l-22.099,0.09H76.932l-36.822,0.2H25.377l-4.42,0.351l-1.213,0.24l-0.061-0.24L18.221,0L13.01,1.042H6.756
			L1.613,5.141l-0.57,2.034l-0.361,3.067v10.244l-0.19,25.586v16.386L0.391,77.813v15.355L0.07,148.43l0.119,16.377l0.302,55.273
			l0.13,16.387L0.26,292.773v16.366l-0.07,55.273v88.047L0.07,508.754v16.377l0.119,55.273v88.037l-0.16,48.708H0l0.029,0.03
			L0,724.727l0.15,6.544l-0.041,0.503l0.061,0.189l0.09,4.029l0.633,4.1l1.053,1.012h0.771l1.514,1.033l2.526-1.033h1.604
			l4.65,2.055h4.961l21.257,8.438l21.949,9.692l458.322,72.131h41.113l461.438-65.677l47.166-20.446l6.133-5.321l0.391,0.162
			c0,0,2.908-10.837,2.908-15.736c0-4.9,1.352-18.782,1.352-18.782L1079.92,698.638z M1059.113,76.781v16.387l-0.43,55.263v16.377
			l0.29,55.273v89.059l-0.221,55.273v16.367l0.12,55.293v16.387l-0.12,56.295v16.377l0.12,55.273v85.221l-3.297-0.221l-81.983,0.74
			H845.377l-80.491-0.37h-23.852l-82.004,0.37H530.825l-80.48,0.372h-23.853l-82.014,1.113l-23.863-0.381l-80.49-1.104l-23.853-0.37
			l-80.469,1.112h-22.37l-22.37,0.362H67.199L29.947,668h-8.851v-87.596l0.131-55.273v-16.377l-0.131-56.295v-16.387l0.131-55.293
			v-16.367l-0.221-55.273v-89.059l0.29-55.273V148.43l-0.43-55.263V76.781l-0.062-56.125l3.118,0.16h16.186l81.021,0.05h23.582
			l79.508,0.431h23.553l79.537-0.29h128.156l79.526,0.22h23.554l79.547-0.12h23.582l81.012,0.12h23.563l79.538-0.12H990.11
			l23.571-0.1l38.287-0.191l7.194-0.07L1059.113,76.781z"/>
	</g>
</g>
</svg>
