<?xml version="1.0" encoding="utf-8"?>
<!-- Generator: Adobe Illustrator 16.0.0, SVG Export Plug-In . SVG Version: 6.00 Build 0)  -->
<!DOCTYPE svg PUBLIC "-//W3C//DTD SVG 1.1//EN" "http://www.w3.org/Graphics/SVG/1.1/DTD/svg11.dtd">
<svg version="1.1" xmlns="http://www.w3.org/2000/svg" xmlns:xlink="http://www.w3.org/1999/xlink" x="0px" y="0px" width="1000px"
	 height="400px" viewBox="0 0 1000 400" enable-background="new 0 0 1000 400" xml:space="preserve">
<g id="Layer_2" display="none">
	<rect display="inline" width="1000" height="910"/>
</g>
<g id="Layer_1">
	<g>
		<g>
			<polygon fill="#FFFFFF" points="541.6,67.155 536.201,67.155 512.021,67.155 508.777,67.155 508.133,70.178 495.398,126.106 
				480.07,70.178 479.199,67.155 476.174,67.155 451.99,67.155 446.584,67.155 448.107,72.338 478.763,172.747 448.107,277.901 
				446.584,283.091 451.99,283.091 475.092,283.091 478.121,283.091 478.982,280.068 495.61,218.532 508.133,279.846 
				508.777,283.091 512.021,283.091 535.127,283.091 540.303,283.091 539.014,278.124 511.586,172.949 540.086,72.338 			"/>
			<path fill="#FFFFFF" d="M602.926,67.155h-46.215h-4.094v4.1v71.27v31.521v104.933v4.112h4.094h23.105h3.883v-4.112v-99.756
				h19.227c14.465,0,31.527-6.273,31.527-36.274v-39.504C634.453,73.415,617.391,67.155,602.926,67.155z M583.699,98.253h12.313
				c7.342,0,7.342,3.245,7.342,5.191v39.08h-19.654V98.253z"/>
			<polygon fill="#FFFFFF" points="699.014,67.371 695.125,67.371 695.125,71.255 695.125,143.171 675.469,143.171 675.469,71.255 
				675.469,67.371 671.367,67.371 648.479,67.371 644.377,67.371 644.377,71.255 644.377,278.979 644.377,282.883 648.479,282.883 
				671.367,282.883 675.469,282.883 675.469,278.979 675.469,174.262 695.125,174.262 695.125,278.979 695.125,282.883 
				699.014,282.883 722.115,283.091 726.217,283.091 726.217,278.979 726.217,71.255 726.217,67.155 722.115,67.155 			"/>
			<polygon fill="#FFFFFF" points="746.082,67.155 741.979,67.155 741.979,71.255 741.979,278.979 741.979,283.091 746.082,283.091 
				814.533,283.091 815.828,283.091 815.828,278.979 815.828,255.87 815.828,251.986 814.533,251.986 773.068,251.986 
				773.068,174.262 809.127,174.262 813.24,174.262 813.24,170.379 813.24,146.624 813.24,142.524 809.127,142.524 773.068,142.524 
				773.068,98.47 814.533,98.47 815.828,98.47 815.828,94.369 815.828,71.255 815.828,67.155 814.533,67.155 			"/>
			<path fill="#FFFFFF" d="M872.18,67.155h-41.457h-4.102v4.1v71.27v31.521v104.933v4.112h4.102h23.107h3.885v-4.112V177.283h9.934
				c3.889,0,5.186,1.3,5.186,5.171v100.637h31.09v-91.766c0-10.373-4.318-21.815-12.734-28.075
				c10.152-4.753,12.734-13.819,12.734-21.602v-38.204C903.924,73.415,886.652,67.155,872.18,67.155z M857.715,98.253h7.781
				c7.338,0,7.338,3.245,7.338,5.191v39.08h-15.119V98.253z"/>
			<polygon fill="#FFFFFF" points="990.941,67.155 922.486,67.155 918.389,67.155 918.389,71.255 918.389,278.979 918.389,283.091 
				922.486,283.091 990.941,283.091 992.234,283.091 992.234,278.979 992.234,255.87 992.234,251.986 990.941,251.986 
				949.488,251.986 949.488,174.262 985.549,174.262 989.646,174.262 989.646,170.379 989.646,146.624 989.646,142.524 
				985.549,142.524 949.488,142.524 949.488,98.47 990.941,98.47 992.234,98.47 992.234,94.369 992.234,71.255 992.234,67.155 			
				"/>
			<path fill="#FFFFFF" d="M807.109,62.682c0,0,0.053,0,0.186,0v-0.688C806.396,62.466,807.109,62.682,807.109,62.682z"/>
		</g>
		<path fill="#FFFFFF" d="M442.613,297.549V338h534.596c8.279,0,17.791-2.669,17.791-23.519v-16.933H442.613z M634.459,334.039
			H446.578v-32.522h187.881V334.039z"/>
		<path fill="#FFFFFF" d="M247.377,95.572L218.42,197.801l27.861,106.842l1.313,5.052h-5.26h-23.479h-3.288l-0.659-3.302
			l-12.726-62.299l-16.89,62.529l-0.879,3.071h-3.068h-23.479h-5.484l1.537-5.268l31.152-106.842L153.92,95.572l-1.537-5.274h5.484
			h24.568h3.078l0.875,3.078l15.578,56.818l12.941-56.818l0.659-3.078h3.288h24.568h5.492L247.377,95.572z"/>
		<path fill="#FFFFFF" d="M200.65,4.355C92.77,4.355,5,92.118,5,200.003s87.77,195.642,195.65,195.642
			c107.877,0,195.648-87.757,195.648-195.642S308.527,4.355,200.65,4.355z M30.508,200.003c0-93.822,76.324-170.15,170.143-170.15
			c93.814,0,170.143,76.328,170.143,170.15c0,93.815-76.328,170.13-170.143,170.13C106.832,370.133,30.508,293.818,30.508,200.003z
			 M200.652,388.904h-2.994v-12.013h2.994c97.536,0,176.889-79.355,176.889-176.896c0-97.545-79.353-176.896-176.889-176.896h-2.994
			V11.101h2.994c104.162,0,188.902,84.735,188.902,188.895C389.555,304.156,304.814,388.904,200.652,388.904z"/>
	</g>
</g>
</svg>
