<?xml version="1.0" encoding="utf-8"?>
<!-- Generator: Adobe Illustrator 16.0.0, SVG Export Plug-In . SVG Version: 6.00 Build 0)  -->
<!DOCTYPE svg PUBLIC "-//W3C//DTD SVG 1.1//EN" "http://www.w3.org/Graphics/SVG/1.1/DTD/svg11.dtd">
<svg version="1.1" xmlns="http://www.w3.org/2000/svg" xmlns:xlink="http://www.w3.org/1999/xlink" x="0px" y="0px" width="1000px"
	 height="400px" viewBox="0 0 1000 400" enable-background="new 0 0 1000 400" xml:space="preserve">
<g id="Layer_2" display="none">
</g>
<g id="Layer_1">
	<g>
		<g>
			<g>
				<polygon points="541.6,67.157 536.201,67.157 512.022,67.157 508.778,67.157 508.133,70.18 495.399,126.105 480.069,70.18 
					479.2,67.157 476.172,67.157 451.988,67.157 446.582,67.157 448.105,72.337 478.762,172.747 448.105,277.905 446.582,283.09 
					451.988,283.09 475.093,283.09 478.119,283.09 478.982,280.067 495.609,218.533 508.133,279.847 508.778,283.09 512.022,283.09 
					535.125,283.09 540.304,283.09 539.014,278.12 511.586,172.95 540.086,72.337 				"/>
				<path d="M602.924,67.157h-46.21h-4.099v4.099v71.27v31.522V278.98v4.109h4.099h23.103h3.882v-4.109v-99.753h19.226
					c14.466,0,31.531-6.277,31.531-36.277v-39.504C634.455,73.418,617.39,67.157,602.924,67.157z M583.699,98.252h12.313
					c7.341,0,7.341,3.247,7.341,5.194v39.08h-19.654V98.252z"/>
				<polygon points="699.012,67.368 695.124,67.368 695.124,71.256 695.124,143.17 675.468,143.17 675.468,71.256 675.468,67.368 
					671.369,67.368 648.479,67.368 644.375,67.368 644.375,71.256 644.375,278.98 644.375,282.883 648.479,282.883 671.369,282.883 
					675.468,282.883 675.468,278.98 675.468,174.264 695.124,174.264 695.124,278.98 695.124,282.883 699.012,282.883 
					722.113,283.09 726.216,283.09 726.216,278.98 726.216,71.256 726.216,67.157 722.113,67.157 				"/>
				<polygon points="746.084,67.157 741.979,67.157 741.979,71.256 741.979,278.98 741.979,283.09 746.084,283.09 814.533,283.09 
					815.831,283.09 815.831,278.98 815.831,255.87 815.831,251.986 814.533,251.986 773.067,251.986 773.067,174.264 
					809.124,174.264 813.239,174.264 813.239,170.375 813.239,146.624 813.239,142.525 809.124,142.525 773.067,142.525 
					773.067,98.471 814.533,98.471 815.831,98.471 815.831,94.372 815.831,71.256 815.831,67.157 814.533,67.157 				"/>
				<path d="M872.18,67.157h-41.457h-4.104v4.099v71.27v31.522V278.98v4.109h4.104h23.105h3.886v-4.109V177.286h9.935
					c3.887,0,5.187,1.297,5.187,5.169V283.09h31.084v-91.761c0-10.375-4.316-21.82-12.73-28.08
					c10.152-4.75,12.73-13.818,12.73-21.594v-38.208C903.921,73.418,886.653,67.157,872.18,67.157z M857.715,98.252h7.78
					c7.341,0,7.341,3.247,7.341,5.194v39.08h-15.122V98.252z"/>
				<polygon points="990.941,67.157 922.487,67.157 918.387,67.157 918.387,71.256 918.387,278.98 918.387,283.09 922.487,283.09 
					990.941,283.09 992.236,283.09 992.236,278.98 992.236,255.87 992.236,251.986 990.941,251.986 949.486,251.986 
					949.486,174.264 985.551,174.264 989.647,174.264 989.647,170.375 989.647,146.624 989.647,142.525 985.551,142.525 
					949.486,142.525 949.486,98.471 990.941,98.471 992.236,98.471 992.236,94.372 992.236,71.256 992.236,67.157 				"/>
				<path d="M807.111,62.685c0,0,0.052,0,0.182,0v-0.693C806.396,62.468,807.111,62.685,807.111,62.685z"/>
			</g>
			<path d="M442.614,297.547V338h534.595c8.282,0,17.791-2.67,17.791-23.52v-16.933H442.614z"/>
			<g>
				<rect x="446.577" y="301.518" fill="#BD213F" width="187.883" height="32.527"/>
			</g>
		</g>
		<g>
			<path d="M247.38,95.57l-28.961,102.234l27.863,106.841l1.31,5.048h-5.259h-23.475h-3.292l-0.657-3.298l-12.728-62.301
				l-16.889,62.528l-0.877,3.071h-3.072h-23.476h-5.485l1.539-5.262l31.151-106.841L153.92,95.57l-1.539-5.268h5.485h24.567h3.08
				l0.875,3.077l15.579,56.813l12.94-56.813l0.657-3.077h3.292h24.567h5.488L247.38,95.57z"/>
			<path d="M200.648,4.355C92.768,4.355,5,92.117,5,200.006c0,107.882,87.768,195.639,195.648,195.639
				c107.88,0,195.651-87.757,195.651-195.639C396.299,92.117,308.528,4.355,200.648,4.355z M200.648,370.134
				c-93.818,0-170.143-76.316-170.143-170.128c0-93.823,76.325-170.151,170.143-170.151c93.815,0,170.143,76.328,170.143,170.151
				C370.791,293.818,294.463,370.134,200.648,370.134z"/>
			<path fill="#BD213F" d="M200.65,11.101h-2.995v12.003h2.995c97.539,0,176.889,79.35,176.889,176.891
				c0,97.542-79.35,176.897-176.889,176.897h-2.995v12.013h2.995c104.165,0,188.902-84.748,188.902-188.91
				C389.553,95.835,304.815,11.101,200.65,11.101z"/>
		</g>
	</g>
</g>
</svg>
